<svg fill="currentColor" xmlns="http://www.w3.org/2000/svg" viewBox="0 0 264.018 264.018" xml:space="preserve"><path d="M132.009 0c-42.66 0-77.366 34.706-77.366 77.366 0 11.634 2.52 22.815 7.488 33.24q.15.333.317.661l58.454 113.179a12.502 12.502 0 0 0 22.212 0l58.438-113.148q.15-.292.285-.591c5.001-10.455 7.536-21.67 7.536-33.341C209.375 34.706 174.669 0 132.009 0m0 117.861c-22.329 0-40.495-18.166-40.495-40.495s18.166-40.494 40.495-40.494 40.495 18.166 40.495 40.494c0 22.329-18.166 40.495-40.495 40.495m29.801 131.157h-59.602a7.5 7.5 0 0 0-7.5 7.5c0 4.143 3.357 7.5 7.5 7.5h59.602c4.143 0 7.5-3.357 7.5-7.5a7.5 7.5 0 0 0-7.5-7.5"/></svg>