<svg width="120px" height="120px" viewBox="0 0 120 120" fill="none" xmlns="http://www.w3.org/2000/svg"><path d="M100 60V28.745a3 3 0 0 0 -0.88 -2.125L83.38 10.879a3 3 0 0 0 -2.119 -0.88h-58.26a3 3 0 0 0 -3 3v94a3 3 0 0 0 3 3.001h31.999" stroke="currentColor" stroke-width="7.5" stroke-linecap="round" stroke-linejoin="round"/><path d="M40 50h40M40 30H60M40 70h15" stroke="currentColor" stroke-width="7.5" stroke-linecap="round" stroke-linejoin="round"/><path d="m102.5 102.5 7.5 7.5" stroke="currentColor" stroke-width="7.5" stroke-linecap="round" stroke-linejoin="round"/><path d="M75 90a15 15 0 1 0 30 0 15 15 0 0 0 -30 0" stroke="currentColor" stroke-width="7.5" stroke-linecap="round" stroke-linejoin="round"/><path d="M80 27V11.77a1.77 1.77 0 0 1 3.02 -1.25l16.46 16.46A1.765 1.765 0 0 1 98.231 30H83a3 3 0 0 1 -3 -3" fill="currentColor" stroke="currentColor" stroke-width="7.5" stroke-linecap="round" stroke-linejoin="round"/></svg>