<svg fill="currentColor" width="16" height="16" viewBox="0 0 16 16" xmlns="http://www.w3.org/2000/svg" transform="rotate(-90)"><path d="M.563 3.5v1.219H1.75V3.5zm3.187 0v1.219h1.5V3.5zm3.5 0v1.219h1.5V3.5zm3.5 0v1.219h1.5V3.5zm3.5 0v1.219h1.187V3.5zM.563 5.281v.937h14.875v-.937zm0 1.5v2.437H1.75V6.781zm3.187 0v2.437h1.5V6.781zm3.5 0v2.437h1.5V6.781zm3.5 0v2.437h1.5V6.781zm3.5 0v2.437h1.187V6.781zm-13.687 3v.937h14.875v-.937zm0 1.5V12.5H1.75v-1.219zm3.187 0V12.5h1.5v-1.219zm3.5 0V12.5h1.5v-1.219zm3.5 0V12.5h1.5v-1.219zm3.5 0V12.5h1.187v-1.219z"/></svg>