<svg width="24" fill="currentColor" height="24" viewBox="0 0 0.42 0.42" aria-hidden="true" xmlns="http://www.w3.org/2000/svg"><path d="M.373.276V.252L.388.244A.004.004 0 0 0 .39.239.1.1 0 0 0 .371.207L.366.206.352.214.331.202V.185L.328.181a.1.1 0 0 0-.037 0L.288.185v.017L.267.214.252.206.247.207a.1.1 0 0 0-.019.032.004.004 0 0 0 .002.005l.015.008v.024L.23.284a.004.004 0 0 0-.002.005.1.1 0 0 0 .019.032l.005.001.015-.008.021.012v.017q0 .004.003.004a.1.1 0 0 0 .037 0L.331.343V.326L.352.314l.014.008Q.369.324.371.321A.1.1 0 0 0 .39.289.004.004 0 0 0 .388.284zM.309.291a.027.027 0 0 1 0-.055.027.027 0 0 1 0 .055M.156.21a.072.072 0 1 0 0-.144.072.072 0 0 0 0 .144m.113.127L.265.335.261.338.25.341A.02.02 0 0 1 .234.334.1.1 0 0 1 .211.295a.02.02 0 0 1 .01-.026L.225.266V.262L.221.259a.02.02 0 0 1-.01-.026L.213.228.207.227H.198a.1.1 0 0 1-.082 0h-.01A.076.076 0 0 0 .03.304v.023a.027.027 0 0 0 .027.027h.198A.03.03 0 0 0 .27.349L.269.342z"/></svg>